<svg width="15" height="14" viewBox="0 0 15 14" fill="none" xmlns="http://www.w3.org/2000/svg">
<path d="M4.46 4.46C5.17 3.76 6.03 3.40 7.03 3.40C8.03 3.40 8.87 3.76 9.56 4.46C10.27 5.15 10.62 6 10.62 7C10.62 8 10.27 8.85 9.56 9.56C8.87 10.25 8.03 10.59 7.03 10.59C6.03 10.59 5.17 10.25 4.46 9.56C3.78 8.85 3.43 8 3.43 7C3.43 6 3.78 5.15 4.46 4.46ZM5.37 8.65C5.83 9.11 6.38 9.34 7.03 9.34C7.67 9.34 8.22 9.11 8.68 8.65C9.14 8.19 9.37 7.64 9.37 7C9.37 6.35 9.14 5.80 8.68 5.34C8.22 4.88 7.67 4.65 7.03 4.65C6.38 4.65 5.83 4.88 5.37 5.34C4.91 5.80 4.68 6.35 4.68 7C4.68 7.64 4.91 8.19 5.37 8.65ZM11.34 2.68C11.51 2.83 11.59 3.02 11.59 3.25C11.59 3.47 11.51 3.67 11.34 3.84C11.19 4.01 11.01 4.09 10.78 4.09C10.55 4.09 10.35 4.01 10.18 3.84C10.02 3.67 9.93 3.47 9.93 3.25C9.93 3.02 10.02 2.83 10.18 2.68C10.35 2.52 10.55 2.43 10.78 2.43C11.01 2.43 11.19 2.52 11.34 2.68ZM14 4.12C14.02 4.68 14.03 5.64 14.03 7C14.03 8.35 14.02 9.31 14 9.87C13.93 11.14 13.55 12.13 12.84 12.84C12.15 13.53 11.17 13.89 9.90 13.93C9.34 13.97 8.38 14 7.03 14C5.67 14 4.71 13.97 4.15 13.93C2.88 13.87 1.90 13.5 1.21 12.81C0.94 12.56 0.72 12.27 0.56 11.93C0.39 11.60 0.27 11.28 0.18 10.96C0.12 10.65 0.09 10.29 0.09 9.87C0.05 9.31 0.03 8.35 0.03 7C0.03 5.64 0.05 4.67 0.09 4.09C0.15 2.84 0.53 1.87 1.21 1.18C1.90 0.47 2.88 0.09 4.15 0.03C4.71 0.01 5.67 0 7.03 0C8.38 0 9.34 0.01 9.90 0.03C11.17 0.09 12.15 0.47 12.84 1.18C13.55 1.87 13.93 2.85 14 4.12ZM12.5 11.12C12.56 10.95 12.61 10.75 12.65 10.5C12.69 10.22 12.72 9.91 12.75 9.56C12.77 9.18 12.78 8.88 12.78 8.65C12.78 8.42 12.78 8.10 12.78 7.68C12.78 7.27 12.78 7.04 12.78 7C12.78 6.93 12.78 6.70 12.78 6.31C12.78 5.89 12.78 5.57 12.78 5.34C12.78 5.11 12.77 4.82 12.75 4.46C12.72 4.09 12.69 3.78 12.65 3.53C12.61 3.26 12.56 3.04 12.5 2.87C12.25 2.22 11.80 1.78 11.15 1.53C10.98 1.46 10.77 1.41 10.5 1.37C10.25 1.33 9.93 1.30 9.56 1.28C9.20 1.26 8.91 1.25 8.68 1.25C8.47 1.25 8.15 1.25 7.71 1.25C7.30 1.25 7.07 1.25 7.03 1.25C6.98 1.25 6.76 1.25 6.34 1.25C5.92 1.25 5.60 1.25 5.37 1.25C5.14 1.25 4.84 1.26 4.46 1.28C4.11 1.30 3.80 1.33 3.53 1.37C3.28 1.41 3.07 1.46 2.90 1.53C2.26 1.78 1.81 2.22 1.56 2.87C1.5 3.04 1.44 3.26 1.40 3.53C1.36 3.78 1.33 4.09 1.31 4.46C1.29 4.82 1.28 5.11 1.28 5.34C1.28 5.55 1.28 5.87 1.28 6.31C1.28 6.72 1.28 6.95 1.28 7C1.28 7.08 1.28 7.28 1.28 7.59C1.28 7.88 1.28 8.13 1.28 8.34C1.28 8.53 1.28 8.78 1.28 9.09C1.30 9.40 1.32 9.67 1.34 9.90C1.36 10.11 1.39 10.33 1.43 10.56C1.47 10.79 1.52 10.97 1.56 11.12C1.83 11.77 2.28 12.21 2.90 12.46C3.07 12.53 3.28 12.58 3.53 12.62C3.80 12.66 4.11 12.69 4.46 12.71C4.84 12.73 5.13 12.75 5.34 12.75C5.57 12.75 5.89 12.75 6.31 12.75C6.75 12.75 6.98 12.75 7.03 12.75C7.09 12.75 7.32 12.75 7.71 12.75C8.13 12.75 8.45 12.75 8.68 12.75C8.91 12.75 9.20 12.73 9.56 12.71C9.93 12.69 10.25 12.66 10.5 12.62C10.77 12.58 10.98 12.53 11.15 12.46C11.80 12.19 12.25 11.75 12.5 11.12Z" fill="white"/>
</svg>
